<svg width="16.000000" height="16.000000" viewBox="0 0 16 16" fill="none" xmlns="http://www.w3.org/2000/svg" xmlns:xlink="http://www.w3.org/1999/xlink">
	<desc>
			Created with Pixso.
	</desc>
	<defs>
		<clipPath id="clip6_32">
			<rect id="add-card" width="16.000000" height="16.000000" fill="white" fill-opacity="0"/>
		</clipPath>
	</defs>
	<rect id="add-card" width="16.000000" height="16.000000" fill="#FFFFFF" fill-opacity="0"/>
	<g clip-path="url(#clip6_32)">
		<path id="Vector" d="M14 7L9 7L9 2C9 1.44 8.55 1 8 1C7.44 1 7 1.44 7 2L7 7L2 7C1.44 7 1 7.44 1 8C1 8.55 1.44 9 2 9L7 9L7 14C7 14.55 7.44 15 8 15C8.55 15 9 14.55 9 14L9 9L14 9C14.55 9 15 8.55 15 8C15 7.44 14.55 7 14 7Z" fill="#5E6C84" fill-opacity="1.000000" fill-rule="nonzero"/>
	</g>
</svg>
